<svg width="17" height="16" viewBox="0 0 17 16" fill="none" xmlns="http://www.w3.org/2000/svg">
<path d="M4.5072 11.848V7.54636L3.04801 3.53147C2.92636 3.17237 2.56526 2.95219 2.19088 3.00885C1.9728 3.04884 1.78338 3.183 1.67304 3.37559C1.5627 3.56819 1.54264 3.79967 1.61821 4.00842L3.52047 9.24363C3.54708 9.31725 3.52552 9.39969 3.4663 9.45079C3.40707 9.5019 3.32249 9.51106 3.25372 9.47381L1.40496 8.47197C0.982187 8.23294 0.447261 8.35491 0.169466 8.75369C-0.10833 9.15246 -0.0379782 9.69738 0.331955 10.0123L5 14C4.68084 13.3273 4.51264 12.5928 4.5072 11.848Z" fill="#2D2D2D"/>
<path d="M6.99314 3.6898C7.58948 3.81437 8.06447 4.27518 8.21749 4.87759L8.23027 4.92603L8.36075 6L9 4.83529L7.47333 0.541735C7.35199 0.175375 6.99105 -0.0491262 6.61711 0.00917495C6.39908 0.0498408 6.20969 0.186779 6.09951 0.383425C5.98934 0.58007 5.96959 0.816399 6.04555 1.02931L6.99314 3.6898Z" fill="#2D2D2D"/>
<path d="M8.32178 4L9 2.40822C8.93901 2.23083 8.82443 2.0953 8.68414 2.03462C8.54385 1.97393 8.3907 1.99364 8.26194 2.08896C8.03582 2.27116 7.9412 2.64101 8.03736 2.96675L8.32178 4Z" fill="#2D2D2D"/>
<path d="M4.64359 5C4.74227 4.317 5.26932 3.74475 6 3.52729L4.80166 0.57898C4.65336 0.187299 4.21204 -0.0526538 3.75494 0.00986476C3.48835 0.0531146 3.25669 0.199368 3.12186 0.409539C2.98703 0.61971 2.96279 0.872378 3.0556 1.10002L4.64359 5Z" fill="#2D2D2D"/>
<path d="M16.5873 6.88209C16.2483 6.74826 15.8692 6.89586 15.6875 7.2324L14.1626 10.1144C14.0678 10.2935 13.8564 10.3558 13.6904 10.2535C13.5244 10.1512 13.4667 9.92306 13.5615 9.74393L16.289 4.59016C16.4681 4.26844 16.4078 3.85438 16.1457 3.60759C15.9881 3.46796 15.7815 3.41041 15.581 3.45029C15.3805 3.49017 15.2065 3.62342 15.1054 3.81448L12.3588 9.0041C12.2975 9.11998 12.1835 9.19175 12.0599 9.19238C11.9362 9.19301 11.8216 9.12239 11.7593 9.00714C11.697 8.89189 11.6963 8.74951 11.7577 8.63363L14.6572 3.15495C14.8377 2.83264 14.7773 2.41689 14.5139 2.16976C14.3563 2.03003 14.1495 1.97246 13.9489 2.01241C13.7483 2.05237 13.5742 2.18578 13.4732 2.37703L10.5557 7.89044C10.4609 8.06957 10.2495 8.13186 10.0835 8.02955C9.91749 7.92725 9.85977 7.6991 9.95457 7.51997L12.1674 3.3372C12.3456 3.0159 12.2853 2.60305 12.0242 2.35649C11.8665 2.21676 11.6598 2.15919 11.4592 2.19914C11.2586 2.2391 11.0845 2.37252 10.9835 2.56376L8.16254 7.97895C8.12589 8.04925 8.05155 8.0862 7.97822 8.07058C7.90489 8.05495 7.84914 7.99029 7.83999 7.91023L7.52852 5.22691C7.43407 4.8304 7.08805 4.56547 6.71002 4.60025C6.29752 4.65604 5.99094 5.03945 6.0002 5.48796V11.6426C6.00566 13.1762 6.76938 14.5899 8.00334 15.3507C10.0132 16.6473 12.6165 15.9414 13.8196 13.7736L16.9088 7.936C17.0061 7.75234 17.0266 7.5328 16.9653 7.33187C16.904 7.13095 16.7666 6.9675 16.5873 6.88209Z" fill="#2D2D2D"/>
</svg>
